<svg t="1650041509351" class="icon" viewBox="0 0 1024 1024" version="1.1" xmlns="http://www.w3.org/2000/svg"
    p-id="12390" width="200" height="200">
    <path
        d="M810.666667 490.666667v42.666666a21.333333 21.333333 0 0 1-21.333334 21.333334H554.666667v234.666666a21.333333 21.333333 0 0 1-21.333334 21.333334h-42.666666a21.333333 21.333333 0 0 1-21.333334-21.333334V554.666667H234.666667a21.333333 21.333333 0 0 1-21.333334-21.333334v-42.666666a21.333333 21.333333 0 0 1 21.333334-21.333334H469.333333V234.666667a21.333333 21.333333 0 0 1 21.333334-21.333334h42.666666a21.333333 21.333333 0 0 1 21.333334 21.333334V469.333333h234.666666a21.333333 21.333333 0 0 1 21.333334 21.333334z"
        p-id="12391" fill="#000000"></path>
</svg>