<svg t="1652019274651" class="icon" viewBox="0 0 1024 1024" version="1.1" xmlns="http://www.w3.org/2000/svg"
    p-id="12226" width="200" height="200">
    <path
        d="M494.506667 785.493333l205.653333-205.653333a85.333333 85.333333 0 0 0 25.173333-60.586667V128a85.333333 85.333333 0 0 0-85.333333-85.333333H170.666667a85.333333 85.333333 0 0 0-85.333334 85.333333v597.333333a85.333333 85.333333 0 0 0 85.333334 85.333334h263.253333a85.333333 85.333333 0 0 0 60.586667-25.173334zM426.666667 554.666667a42.666667 42.666667 0 0 1 42.666666-42.666667h178.346667L426.666667 733.013333z m384-341.333334v597.333334a85.333333 85.333333 0 0 1-85.333334 85.333333H256a85.333333 85.333333 0 0 0 85.333333 85.333333h384a170.666667 170.666667 0 0 0 170.666667-170.666666V298.666667a85.333333 85.333333 0 0 0-85.333333-85.333334z"
        p-id="12227" fill="#000000"></path>
</svg>