<svg t="1649727084617" class="icon" viewBox="0 0 1024 1024" version="1.1" xmlns="http://www.w3.org/2000/svg"
    p-id="15021" width="200" height="200">
    <path
        d="M771.84 436.053333l-298.666667 487.253334a32.426667 32.426667 0 0 1-27.306666 15.36h-8.533334a21.76 21.76 0 0 1-15.786666-6.826667 20.906667 20.906667 0 0 1-5.546667-16.213333l23.893333-275.626667H287.573333a32.426667 32.426667 0 0 1-27.733333-16.213333l-8.106667-14.08a20.906667 20.906667 0 0 1 0-21.76l298.666667-487.253334a32.426667 32.426667 0 0 1 28.16-15.36h8.533333a21.76 21.76 0 0 1 15.786667 6.826667 20.906667 20.906667 0 0 1 5.546667 16.213333L584.106667 384h152.32a32.426667 32.426667 0 0 1 27.733333 16.213333l8.106667 14.08a20.906667 20.906667 0 0 1-0.426667 21.76z"
        p-id="15022" fill="#000000"></path>
</svg>