<svg t="1649774120701" class="icon" viewBox="0 0 1024 1024" version="1.1" xmlns="http://www.w3.org/2000/svg"
    p-id="11852" width="200" height="200">
    <path
        d="M810.666667 314.453333l48.213333-48.213333a21.333333 21.333333 0 0 0 0-29.866667l-30.293333-30.293333a21.333333 21.333333 0 0 0-30.293334 0L750.933333 256A384 384 0 0 0 597.333333 180.48V128a42.666667 42.666667 0 0 0-42.666666-42.666667h-85.333334a42.666667 42.666667 0 0 0-42.666666 42.666667v52.48A384 384 0 0 0 128 554.666667a388.693333 388.693333 0 0 0 372.906667 384A384 384 0 0 0 810.666667 314.453333zM512 853.333333a298.666667 298.666667 0 1 1 298.666667-298.666666 298.666667 298.666667 0 0 1-298.666667 298.666666z m22.613333-512a20.906667 20.906667 0 0 0-22.613333 21.333334V554.666667l-134.826667 134.826666a21.76 21.76 0 0 0 2.56 32.426667 213.333333 213.333333 0 0 0 168.533334 42.666667A213.333333 213.333333 0 0 0 534.613333 341.333333z"
        p-id="11853" fill="#000000"></path>
</svg>