<svg t="1650039417314" class="icon" viewBox="0 0 1024 1024" version="1.1" xmlns="http://www.w3.org/2000/svg"
    p-id="12208" width="200" height="200">
    <path
        d="M853.333333 298.666667h-128V213.333333a85.333333 85.333333 0 0 0-85.333333-85.333333H384a85.333333 85.333333 0 0 0-85.333333 85.333333v85.333334H170.666667a85.333333 85.333333 0 0 0-85.333334 85.333333v426.666667a85.333333 85.333333 0 0 0 85.333334 85.333333h682.666666a85.333333 85.333333 0 0 0 85.333334-85.333333V384a85.333333 85.333333 0 0 0-85.333334-85.333333z m-256 298.666666a42.666667 42.666667 0 0 1-42.666666 42.666667h-85.333334a42.666667 42.666667 0 0 1-42.666666-42.666667v-21.333333a21.333333 21.333333 0 0 1 21.333333-21.333333h128a21.333333 21.333333 0 0 1 21.333333 21.333333z m42.666667-298.666666H384V213.333333h256z"
        p-id="12209" fill="#000000"></path>
</svg>