<svg t="1650114738865" class="icon" viewBox="0 0 1024 1024" version="1.1" xmlns="http://www.w3.org/2000/svg" p-id="3412"
    width="200" height="200">
    <path
        d="M77.575758 370.998303c0-108.140606 0-162.226424 21.038545-203.527758a193.070545 193.070545 0 0 1 84.402424-84.371393C224.256 62.060606 278.341818 62.060606 386.482424 62.060606h250.973091c108.140606 0 162.226424 0 203.527758 21.038546a193.070545 193.070545 0 0 1 84.371394 84.402424C946.424242 208.740848 946.424242 262.826667 946.424242 370.967273v250.973091c0 108.140606 0 162.226424-21.038545 203.527757a193.070545 193.070545 0 0 1-84.402424 84.371394C799.744 930.909091 745.658182 930.909091 637.517576 930.909091h-250.973091c-108.140606 0-162.226424 0-203.527758-21.038546a193.070545 193.070545 0 0 1-84.371394-84.402424C77.575758 784.228848 77.575758 730.14303 77.575758 622.002424v-250.973091z"
        fill="#FFFFFF" p-id="3413"></path>
    <path
        d="M699.764364 264.471273l-185.778425 144.973575L323.956364 264.471273v0.03103l0.248242 0.217212v203.000243l187.640242 148.138666 187.919516-142.429091V264.502303z"
        fill="#EA4335" p-id="3414"></path>
    <path
        d="M748.544 229.189818l-48.779636 35.281455v208.989091L853.333333 355.576242V284.578909s-18.618182-101.40703-104.727272-55.389091z"
        fill="#FBBC05" p-id="3415"></path>
    <path
        d="M699.764364 473.460364v271.049697h117.666909s33.512727-3.475394 35.90206-41.642667V355.607273l-153.568969 117.884121z"
        fill="#34A853" p-id="3416"></path>
    <path
        d="M324.204606 744.727273v-277.007515l-0.248242-0.186182L324.204606 744.727273zM323.956364 264.502303l-48.531394-35.064242C189.346909 183.389091 170.666667 284.765091 170.666667 284.765091v70.997333l153.289697 111.771152V264.502303z"
        fill="#C5221F" p-id="3417"></path>
    <path d="M323.956364 264.502303v203.031273l0.248242 0.186182V264.688485l-0.248242-0.186182z" fill="#C5221F"
        p-id="3418"></path>
    <path
        d="M170.666667 355.824485v347.291151A41.890909 41.890909 0 0 0 206.568727 744.727273h117.666909l-0.279272-277.193697-153.289697-111.709091z"
        fill="#4285F4" p-id="3419"></path>
</svg>