<svg t="1649726978457" class="icon" viewBox="0 0 1024 1024" version="1.1" xmlns="http://www.w3.org/2000/svg"
    p-id="14681" width="200" height="200">
    <path
        d="M896 503.04c0 177.066667-94.293333 392.96-378.453333 392.96A386.986667 386.986667 0 0 1 128 512a386.986667 386.986667 0 0 1 389.546667-384 393.386667 393.386667 0 0 1 243.2 85.333333 22.186667 22.186667 0 0 1 8.106666 15.786667 23.466667 23.466667 0 0 1-6.826666 16.64A1126.4 1126.4 0 0 0 682.666667 325.973333a20.906667 20.906667 0 0 1-28.16 2.56 218.026667 218.026667 0 0 0-136.533334-42.666666 228.266667 228.266667 0 0 0 0 456.533333c128 0 182.186667-54.613333 210.346667-151.466667H533.333333a21.333333 21.333333 0 0 1-21.333333-21.333333V456.533333a21.333333 21.333333 0 0 1 21.333333-21.333333h341.333334a19.2 19.2 0 0 1 19.2 17.066667 493.226667 493.226667 0 0 1 2.133333 50.773333z"
        p-id="14682" fill="#000000"></path>
</svg>